<svg xmlns="http://www.w3.org/2000/svg" width="180" height="150" viewBox="0 0 180 150">
  <g id="bookstore" transform="translate(-360 -1859)">
    <g id="Group_32" data-name="Group 32" transform="translate(360 1943.891)">
      <text id="bookstore-2" data-name="bookstore" transform="translate(90 34.109)" font-size="34" font-family="Offside-Regular, Offside"><tspan x="-89.675" y="0">bookstore</tspan></text>
      <text id="ACCESSORIES" transform="translate(44 62.109)" font-size="11" font-family="Roboto-Regular, Roboto" letter-spacing="0.2em"><tspan x="0" y="0">ACCESSORIES</tspan></text>
    </g>
    <g id="Group_466" data-name="Group 466" transform="translate(416 1859)">
      <g id="Group_455" data-name="Group 455">
        <path id="Path_673" data-name="Path 673" d="M65.55,54.55,32.83,51.21a1.368,1.368,0,0,1-1.22-1.5,1.4,1.4,0,0,1,1.5-1.22l29.71,3.03V11.43l-2.8.32a1.369,1.369,0,1,1-.32-2.72l5.85-.68Z" fill="#231f20"/>
      </g>
      <g id="Group_456" data-name="Group 456">
        <path id="Path_674" data-name="Path 674" d="M52.93,45.8a1.366,1.366,0,0,1-1.37-1.37V4.58L34.34,13.89V38.9a1.37,1.37,0,0,1-2.74,0V12.26L54.3,0V44.43A1.366,1.366,0,0,1,52.93,45.8Z" fill="#231f20"/>
      </g>
      <g id="Group_457" data-name="Group 457">
        <path id="Path_675" data-name="Path 675" d="M59.6,48.77a1.366,1.366,0,0,1-1.37-1.37V7.09l-4.7,1.38a1.37,1.37,0,1,1-.77-2.63l8.21-2.4V47.4A1.379,1.379,0,0,1,59.6,48.77Z" fill="#231f20"/>
      </g>
      <g id="Group_458" data-name="Group 458">
        <path id="Path_676" data-name="Path 676" d="M0,54.55V8.37l6.08.67a1.368,1.368,0,0,1-.3,2.72l-3.05-.34v40.1l29.71-3.03a1.367,1.367,0,0,1,.28,2.72Z" fill="#231f20"/>
      </g>
      <g id="Group_459" data-name="Group 459">
        <path id="Path_677" data-name="Path 677" d="M12.62,45.8a1.366,1.366,0,0,1-1.37-1.37V0L33.23,11.87a1.365,1.365,0,0,1-1.3,2.4L13.99,4.58V44.43A1.366,1.366,0,0,1,12.62,45.8Z" fill="#231f20"/>
      </g>
      <g id="Group_460" data-name="Group 460">
        <path id="Path_678" data-name="Path 678" d="M5.96,48.77A1.366,1.366,0,0,1,4.59,47.4V3.43l8.35,2.51a1.367,1.367,0,0,1-.78,2.62L7.33,7.1V47.4A1.366,1.366,0,0,1,5.96,48.77Z" fill="#231f20"/>
      </g>
      <g id="Group_461" data-name="Group 461">
        <path id="Path_679" data-name="Path 679" d="M33.35,65.66a31.474,31.474,0,0,1-18.11-6.18,1.364,1.364,0,1,1,1.73-2.11c.63.51,15.59,12.43,31.92-.03a1.37,1.37,0,1,1,1.66,2.18A27.913,27.913,0,0,1,33.35,65.66Z" fill="#231f20"/>
      </g>
      <g id="Group_462" data-name="Group 462">
        <path id="Path_680" data-name="Path 680" d="M25.24,28.45c-3.75,0-3.74-5.82,0-5.82a3.012,3.012,0,0,1,1.08.2c-.84-2.84-2.3-4.73-3.96-4.73-2.6,0-4.71,4.59-4.71,10.25S19.76,38.6,22.36,38.6s4.71-4.59,4.71-10.25c0-.18-.01-.35-.01-.53A2.78,2.78,0,0,1,25.24,28.45Z" fill="#231f20"/>
      </g>
      <g id="Group_463" data-name="Group 463">
        <path id="Path_681" data-name="Path 681" d="M45.9,28.45c-3.75,0-3.74-5.82,0-5.82a3.012,3.012,0,0,1,1.08.2c-.84-2.84-2.3-4.73-3.96-4.73-2.6,0-4.71,4.59-4.71,10.25S40.42,38.6,43.02,38.6s4.71-4.59,4.71-10.25c0-.18-.01-.35-.01-.53A2.78,2.78,0,0,1,45.9,28.45Z" fill="#231f20"/>
      </g>
      <g id="Group_464" data-name="Group 464">
        <path id="Path_682" data-name="Path 682" d="M45.03,75.71a5.038,5.038,0,0,1-4.51-2.67,20.239,20.239,0,0,0-6.79-7.5,1.378,1.378,0,0,1-.54-1.86,1.364,1.364,0,0,1,1.85-.54,22.348,22.348,0,0,1,7.87,8.57,2.393,2.393,0,0,0,2.52,1.23,4.008,4.008,0,0,0,3.27-2.87c.57-2.25-1.08-4.96-4.52-7.45a1.368,1.368,0,1,1,1.6-2.22c6.03,4.35,6.08,8.34,5.58,10.34a6.75,6.75,0,0,1-5.57,4.91A4.962,4.962,0,0,1,45.03,75.71Z" fill="#231f20"/>
      </g>
      <g id="Group_465" data-name="Group 465">
        <path id="Path_683" data-name="Path 683" d="M45.06,69.8a1.358,1.358,0,0,1-1.27-.87c-1-2.57-4.24-4.19-4.27-4.21a1.366,1.366,0,0,1,1.21-2.45c.17.08,4.22,2.1,5.61,5.67a1.358,1.358,0,0,1-.78,1.77A1.426,1.426,0,0,1,45.06,69.8Z" fill="#231f20"/>
      </g>
    </g>
  </g>
</svg>
